<?xml version="1.0" encoding="UTF-8" standalone="no"?>
<!-- Created with Inkscape (http://www.inkscape.org/) -->

<svg
   width="41.336102mm"
   height="28.888395mm"
   viewBox="0 0 41.336102 28.888395"
   version="1.1"
   id="svg5"
   sodipodi:docname="youtubist.svg"
   inkscape:version="1.1.2 (0a00cf5339, 2022-02-04, custom)"
   xmlns:inkscape="http://www.inkscape.org/namespaces/inkscape"
   xmlns:sodipodi="http://sodipodi.sourceforge.net/DTD/sodipodi-0.dtd"
   xmlns="http://www.w3.org/2000/svg"
   xmlns:svg="http://www.w3.org/2000/svg">
  <sodipodi:namedview
     id="namedview7"
     pagecolor="#ffffff"
     bordercolor="#666666"
     borderopacity="1.0"
     inkscape:pageshadow="2"
     inkscape:pageopacity="0.0"
     inkscape:pagecheckerboard="0"
     inkscape:document-units="mm"
     showgrid="false"
     showguides="false"
     inkscape:zoom="5.12"
     inkscape:cx="89.550782"
     inkscape:cy="54.101563"
     inkscape:window-width="1920"
     inkscape:window-height="1012"
     inkscape:window-x="0"
     inkscape:window-y="44"
     inkscape:window-maximized="1"
     inkscape:current-layer="layer1"
     fit-margin-top="0"
     fit-margin-left="0"
     fit-margin-right="0"
     fit-margin-bottom="0" />
  <defs
     id="defs2">
    <rect
       x="33.036427"
       y="301.48532"
       width="449.39948"
       height="321.71936"
       id="rect1947" />
  </defs>
  <g
     inkscape:label="Layer 1"
     inkscape:groupmode="layer"
     id="layer1"
     transform="translate(-29.571499,-21.152776)">
    <text
       xml:space="preserve"
       transform="scale(0.26458333)"
       id="text1945"
       style="font-style:normal;font-weight:normal;font-size:40px;line-height:1.25;font-family:sans-serif;white-space:pre;shape-inside:url(#rect1947);fill:#000000;fill-opacity:1;stroke:none" />
    <path
       d="m 69.990368,25.670116 c -0.481542,-1.780646 -1.870604,-3.175 -3.65125,-3.65125 -2.391833,-0.923396 -25.558749,-1.375833 -32.279166,0.02646 -1.780646,0.481542 -3.175,1.870604 -3.65125,3.65125 -1.0795,4.736042 -1.161521,14.975417 0.02646,19.817292 0.481542,1.780646 1.870604,3.175 3.65125,3.65125 4.736042,1.090083 27.252083,1.243541 32.279166,0 1.780646,-0.481542 3.175,-1.870604 3.65125,-3.65125 1.150938,-5.159375 1.232959,-14.76375 -0.02646,-19.84375 z"
       fill="#ff0000"
       id="path16353"
       style="stroke-width:0.264583" />
    <g
       id="XMLID_1_"
       transform="matrix(0.21732696,0,0,0.21732696,57.064334,7.4205036)">
	
	
	
	
	
	
	
	
	<path
   id="XMLID_16_"
   style="opacity:1;fill:#ffffff;fill-opacity:1;stroke-width:0.620627"
   class="st0"
   d="m -52.752497,101.1631 c -3.909948,0 -7.137208,3.22726 -7.137208,7.13721 v 9.15061 c 0.08809,0.0512 9.142584,5.31203 9.636683,5.68261 0.68269,0.37238 1.552051,0.37238 2.358866,0 0.68269,-0.37238 19.053,-10.98533 19.30125,-11.10946 0.620627,-0.37237 1.427684,-0.24825 1.80006,0 0.372376,0.24826 1.4272,0.93118 1.923701,1.17943 0.496502,0.24826 0.496502,1.17968 0,1.42793 -0.496501,0.24825 -21.969945,12.72212 -23.025011,13.21862 -0.744752,0.49651 -1.552051,0.49675 -2.358866,-0.0618 -1.42049,-0.80289 -7.255685,-4.11995 -9.636683,-5.55897 v 4.77834 c 0.08291,0.0478 9.20554,5.31313 9.823356,5.68382 0.682689,0.37238 1.55084,0.37238 2.357655,0 0.68269,-0.37237 19.053,-10.98533 19.30125,-11.10946 0.620627,-0.37238 1.427684,-0.24825 1.80006,0 0.372376,0.24825 1.4272,0.93118 1.923701,1.17943 0.496502,0.24825 0.496502,1.17968 0,1.42793 -0.496501,0.24825 -21.969945,12.72212 -23.025011,13.21862 -0.744752,0.49651 -1.551325,0.49675 -2.544328,-0.0618 -1.42049,-0.80289 -7.255685,-4.11994 -9.636683,-5.55897 v 4.77834 c 0.08809,0.0512 9.142584,5.31325 9.636683,5.68382 0.68269,0.37238 1.552051,0.37238 2.358866,0 0.68269,-0.37237 19.053,-10.98533 19.30125,-11.10946 0.620627,-0.37237 1.427684,-0.24825 1.80006,0 0.372376,0.24825 1.4272,0.93118 1.923701,1.17944 0.496502,0.24825 0.496502,1.17846 0,1.42671 -0.496501,0.24825 -21.969945,12.72333 -23.025011,13.21983 -0.744752,0.55857 -1.552051,0.55881 -2.358866,-0.0618 -1.42049,-0.80289 -7.255685,-4.11994 -9.636683,-5.55897 v 9.65486 c 0,3.90995 3.22726,7.13721 7.137208,7.13721 h 42.698396 c 3.909948,0 7.1372074,-3.22726 7.1372074,-7.13721 v -42.69963 c 0,-3.90995 -3.1031334,-7.13721 -7.1372074,-7.13721 z" />

	
	
	
</g>
    <g
       id="g109255"
       transform="matrix(0.26458333,0,0,0.26458333,72.890905,20.753264)" />
  </g>
  <style
     type="text/css"
     id="style34215">
	.st0{fill:#E44432;}
	.st1{fill:#FFFFFF;}
</style>
</svg>
